<?xml version="1.0" standalone="no"?><!DOCTYPE svg PUBLIC "-//W3C//DTD SVG 1.1//EN" "http://www.w3.org/Graphics/SVG/1.1/DTD/svg11.dtd"><svg t="1595416067274" class="icon" viewBox="0 0 1024 1024" version="1.1" xmlns="http://www.w3.org/2000/svg" p-id="2160" xmlns:xlink="http://www.w3.org/1999/xlink" width="32" height="32"><defs><style type="text/css"></style></defs><path d="M512 512m-512 0a512 512 0 1 0 1024 0 512 512 0 1 0-1024 0Z" fill="#429DFF" p-id="2161"></path><path d="M739.555556 455.111111h-170.666667v-170.666667c0-31.288889-25.6-56.888889-56.888889-56.888888s-56.888889 25.6-56.888889 56.888888v170.666667h-170.666667c-31.288889 0-56.888889 25.6-56.888888 56.888889s25.6 56.888889 56.888888 56.888889h170.666667v170.666667c0 31.288889 25.6 56.888889 56.888889 56.888888s56.888889-25.6 56.888889-56.888888v-170.666667h170.666667c31.288889 0 56.888889-25.6 56.888888-56.888889s-25.6-56.888889-56.888888-56.888889z" fill="#FFFFFF" p-id="2162"></path></svg>